<svg xmlns="http://www.w3.org/2000/svg" viewBox="0 0 64 64">
  <rect width="64" height="64" rx="16" fill="#F6F5F2"/>
  <path d="M8 18c10 0 16 5 23 12 4 4 8 5 14 5v10c-9 0-15-2-21-8-5-5-8-9-16-9z" fill="#73B8E8"/>
  <path d="M8 36c9 0 16-2 23-8 5-4 9-6 14-6v10c-4 0-7 1-10 4-8 7-16 10-27 10z" fill="#F8D768"/>
  <rect x="44" y="16" width="4" height="32" fill="#111111"/>
  <path d="M50 18c7 0 12 2 17 6 4 3 8 4 13 4v10c-8 0-13-2-19-7-4-3-7-4-11-4z" transform="scale(.8) translate(6 4)" fill="#8ACA74"/>
  <path d="M50 40c6 0 10 2 15 6 4 3 8 5 13 5v10c-8 0-13-2-18-6-4-3-7-5-10-5z" transform="scale(.8) translate(6 4)" fill="#D76767"/>
</svg>
